<?xml version="1.0" encoding="iso-8859-1"?>
<!-- Generator: Adobe Illustrator 19.0.0, SVG Export Plug-In . SVG Version: 6.00 Build 0)  -->
<svg version="1.1" id="Layer_1" xmlns="http://www.w3.org/2000/svg" xmlns:xlink="http://www.w3.org/1999/xlink" x="0px" y="0px"
	 viewBox="0 0 512.005 512.005" style="enable-background:new 0 0 512.005 512.005;color: #00b172;" xml:space="preserve">
<path style="fill:#D8DCDC;" d="M22.503,512.005c-3.302,0-6.477-1.817-8.06-4.975c-2.222-4.444-0.414-9.842,4.03-12.073l17.992-8.996
	c2.33-1.053,48.974-22.571,40.221-61.965c-3.481-15.671-1.241-29.21,6.666-40.248c14.52-20.259,42.956-23.552,44.153-23.687
	c4.903-0.54,9.383,3.032,9.914,7.979c0.54,4.93-3.023,9.365-7.943,9.914c-0.459,0.045-21.833,2.708-31.549,16.346
	c-4.822,6.774-6.027,15.203-3.679,25.792c9.572,43.028-28.589,72.544-50.099,82.134l-17.632,8.834
	C25.229,511.699,23.852,512.005,22.503,512.005"/>
<path style="fill:#00b172;" d="M141.718,382.246l-25.441-25.441c-7.026-7.026-7.026-18.424,0-25.45L300.75,121.442l76.331,76.331
	L167.159,382.246C160.133,389.272,148.744,389.272,141.718,382.246"/>
<path style="fill:rgb(2, 157, 102);" d="M355.563,194.247l-51.304-51.304c-20.961-20.961-20.961-54.957,0-75.917l51.304-51.304
	c20.961-20.961,54.957-20.961,75.917,0l51.304,51.304c20.97,20.961,20.97,54.957,0,75.917l-51.304,51.304
	C410.52,215.225,376.524,215.225,355.563,194.247"/>
<path style="fill:#FFFFFF;" d="M275.301,223.214L275.301,223.214c-6.999-6.999-6.999-18.451,0-25.441l12.72-12.729
	c6.999-6.999,18.451-6.999,25.45,0l0,0c6.99,6.999,6.99,18.451,0,25.45l-12.729,12.72
	C293.751,230.213,282.299,230.213,275.301,223.214"/>
<g>
</g>
<g>
</g>
<g>
</g>
<g>
</g>
<g>
</g>
<g>
</g>
<g>
</g>
<g>
</g>
<g>
</g>
<g>
</g>
<g>
</g>
<g>
</g>
<g>
</g>
<g>
</g>
<g>
</g>
</svg>
